<svg width="544" height="70" viewBox="0 0 544 70" fill="none" xmlns="http://www.w3.org/2000/svg">
<g clip-path="url(#clip0_44_157)">
<g filter="url(#filter0_fn_44_157)">
<ellipse cx="272" cy="165" rx="272" ry="125" fill="url(#paint0_linear_44_157)"/>
</g>
<g filter="url(#filter1_fn_44_157)">
<ellipse cx="272" cy="165" rx="272" ry="125" fill="url(#paint1_linear_44_157)"/>
</g>
<g filter="url(#filter2_fn_44_157)">
<ellipse cx="272" cy="107" rx="195.84" ry="90" fill="url(#paint2_linear_44_157)"/>
</g>
<g clip-path="url(#clip1_44_157)">
<path d="M43.0055 41.1097C42.9552 40.6854 43.2552 40.3003 43.6756 40.2495L70.685 37.022L77.4261 36.2073L99.4016 33.5922C99.8219 33.5414 100.203 33.8442 100.254 34.2685L100.71 38.1098C100.76 38.534 100.46 38.9192 100.04 38.97L77.3593 41.6703L66.8205 42.9439L44.3137 45.6273C43.8932 45.6781 43.5116 45.3753 43.4612 44.951L43.0055 41.1097Z" fill="#2F2F2F"/>
<path d="M56.2505 17.3158C56.0462 16.9414 56.1815 16.4709 56.5524 16.2648L59.9111 14.3993C60.2821 14.1932 60.7483 14.3296 60.9525 14.704L69.3703 29.6738C69.5745 30.0482 69.4393 30.5187 69.0683 30.7248L65.7096 32.5903C65.3387 32.7964 64.8724 32.6599 64.6683 32.2856L56.2505 17.3158ZM71.6333 42.4045C71.4291 42.0301 71.5643 41.5596 71.9353 41.3536L75.2939 39.488C75.6649 39.282 76.1312 39.4184 76.3353 39.7928L77.3595 41.6704L84.9957 55.6704C85.1997 56.0444 85.0647 56.5152 84.6937 56.721L81.3349 58.5866C80.9639 58.7928 80.4978 58.6563 80.2935 58.2819L72.5507 44.0864L71.6333 42.4045Z" fill="#2F2F2F"/>
<path d="M87.4352 12.393C87.8323 12.5416 88.0348 12.9868 87.8876 13.3875L87.2213 15.2011L86.9546 15.9218C84.3177 22.9782 81.1235 29.7583 77.4263 36.2073C75.8869 38.8923 74.2604 41.52 72.5506 44.0863C70.3739 47.3531 68.0624 50.5207 65.6239 53.581C65.383 53.8832 64.94 53.918 64.6542 53.6585L61.6583 50.9388C61.3925 50.6974 61.3606 50.2885 61.5842 50.0069C63.405 47.714 65.1517 45.3582 66.8206 42.9439C68.1595 41.0071 69.4483 39.0325 70.6852 37.022C75.2633 29.5803 79.1297 21.6468 82.189 13.3187L82.8552 11.5049C83.0025 11.1043 83.4436 10.8999 83.8407 11.0484L87.4352 12.393Z" fill="#2F2F2F"/>
<path d="M103.453 17.4V12.9534H103.925V17.4H103.453ZM102.068 13.4171V12.9534H105.304V13.4171H102.068ZM107.831 17.4L107.837 17.2665L109.663 12.9534H110.11V13.0868L108.284 17.4H107.831ZM105.842 17.4V12.9534H106.314V17.4H105.842ZM107.837 17.4L106.006 13.0868V12.9534H106.459L108.284 17.2665V17.4H107.837ZM109.801 17.4V12.9534H110.273V17.4H109.801Z" fill="#2F2F2F"/>
</g>
<path d="M130.518 30.5L124.092 21.036V20.7H125.282L131.708 30.164V30.5H130.518ZM124.092 30.5V20.7H125.282V30.5H124.092ZM130.518 30.5V20.7H131.708V30.5H130.518ZM136.834 30.682C136.153 30.682 135.551 30.528 135.028 30.22C134.506 29.9027 134.095 29.4687 133.796 28.918C133.507 28.3673 133.362 27.7233 133.362 26.986C133.362 26.258 133.507 25.6187 133.796 25.068C134.086 24.508 134.487 24.074 135 23.766C135.523 23.458 136.12 23.304 136.792 23.304C137.455 23.304 138.034 23.4627 138.528 23.78C139.032 24.088 139.424 24.5267 139.704 25.096C139.984 25.6653 140.124 26.328 140.124 27.084V27.252L139.914 27.448H134.02V26.342H139.48L138.92 26.566C138.892 26.118 138.78 25.7353 138.584 25.418C138.388 25.1007 138.136 24.858 137.828 24.69C137.52 24.5127 137.175 24.424 136.792 24.424C136.382 24.424 136.004 24.5267 135.658 24.732C135.313 24.928 135.042 25.208 134.846 25.572C134.65 25.936 134.552 26.356 134.552 26.832V27.112C134.552 27.5787 134.65 27.9987 134.846 28.372C135.042 28.736 135.313 29.0253 135.658 29.24C136.004 29.4547 136.396 29.562 136.834 29.562C137.264 29.562 137.637 29.4593 137.954 29.254C138.272 29.0393 138.519 28.75 138.696 28.386H138.864L139.844 28.82C139.583 29.3987 139.186 29.856 138.654 30.192C138.132 30.5187 137.525 30.682 136.834 30.682ZM147.79 23.486V30.5H146.642V28.526L146.978 28.736C146.847 29.128 146.642 29.4733 146.362 29.772C146.091 30.0613 145.765 30.2853 145.382 30.444C145.009 30.6027 144.603 30.682 144.164 30.682C143.66 30.682 143.212 30.5747 142.82 30.36C142.428 30.1453 142.115 29.828 141.882 29.408C141.658 28.9787 141.546 28.4513 141.546 27.826V23.486H142.736V27.518C142.736 28.022 142.811 28.4233 142.96 28.722C143.119 29.0113 143.324 29.2213 143.576 29.352C143.837 29.4733 144.131 29.534 144.458 29.534C144.822 29.534 145.163 29.4453 145.48 29.268C145.807 29.0907 146.073 28.8293 146.278 28.484C146.493 28.1387 146.6 27.714 146.6 27.21V23.486H147.79ZM149.696 30.5V23.486H150.844V25.46L150.508 25.25C150.676 24.7087 150.989 24.2793 151.446 23.962C151.903 23.6447 152.417 23.486 152.986 23.486H153.7V24.606H152.804C152.421 24.606 152.085 24.6993 151.796 24.886C151.516 25.0633 151.292 25.3153 151.124 25.642C150.965 25.9593 150.886 26.3327 150.886 26.762V30.5H149.696ZM156.721 30.682C156.235 30.682 155.801 30.5887 155.419 30.402C155.045 30.2153 154.751 29.9587 154.537 29.632C154.322 29.296 154.215 28.9133 154.215 28.484C154.215 27.868 154.434 27.3687 154.873 26.986C155.321 26.6033 155.937 26.3793 156.721 26.314L159.423 26.118V27.182L156.959 27.378C156.445 27.4153 156.063 27.5273 155.811 27.714C155.568 27.8913 155.447 28.1433 155.447 28.47C155.447 28.778 155.577 29.0347 155.839 29.24C156.1 29.4453 156.436 29.548 156.847 29.548C157.267 29.548 157.649 29.45 157.995 29.254C158.34 29.058 158.611 28.7967 158.807 28.47C159.012 28.1433 159.115 27.7793 159.115 27.378V26.244C159.115 25.712 158.947 25.2733 158.611 24.928C158.284 24.5827 157.845 24.41 157.295 24.41C156.865 24.41 156.497 24.5173 156.189 24.732C155.881 24.9373 155.671 25.2267 155.559 25.6H155.405L154.369 25.264C154.574 24.6387 154.933 24.1533 155.447 23.808C155.96 23.4627 156.581 23.29 157.309 23.29C158.261 23.29 158.993 23.5747 159.507 24.144C160.029 24.7133 160.291 25.516 160.291 26.552V30.5H159.171V28.456L159.591 28.68C159.479 29.0627 159.278 29.408 158.989 29.716C158.709 30.0147 158.373 30.2527 157.981 30.43C157.598 30.598 157.178 30.682 156.721 30.682ZM162.344 30.5V20.42L163.492 20.28L163.534 20.392V30.5H162.344ZM175.141 30.5L171.599 20.994L171.501 20.7H172.691L176.415 30.388V30.5H175.141ZM167.777 30.5V30.388L171.501 20.7H172.691L172.593 20.994L169.051 30.5H167.777ZM169.219 27.98L169.639 26.818H174.693L175.113 27.98H169.219ZM177.423 30.5V23.486H178.571V25.46L178.235 25.25C178.403 24.7087 178.715 24.2793 179.173 23.962C179.63 23.6447 180.143 23.486 180.713 23.486H181.427V24.606H180.531C180.148 24.606 179.812 24.6993 179.523 24.886C179.243 25.0633 179.019 25.3153 178.851 25.642C178.692 25.9593 178.613 26.3327 178.613 26.762V30.5H177.423ZM185.371 30.682C184.671 30.682 184.055 30.528 183.523 30.22C182.991 29.9027 182.576 29.4687 182.277 28.918C181.979 28.3673 181.829 27.7233 181.829 26.986C181.829 26.258 181.979 25.6187 182.277 25.068C182.576 24.508 182.991 24.074 183.523 23.766C184.055 23.458 184.671 23.304 185.371 23.304C185.903 23.304 186.379 23.402 186.799 23.598C187.229 23.7847 187.593 24.0553 187.891 24.41C188.199 24.7553 188.428 25.18 188.577 25.684L187.541 25.978H187.387C187.229 25.502 186.967 25.1287 186.603 24.858C186.249 24.578 185.838 24.438 185.371 24.438C184.895 24.438 184.48 24.5453 184.125 24.76C183.78 24.9747 183.509 25.2733 183.313 25.656C183.117 26.0387 183.019 26.482 183.019 26.986C183.019 27.49 183.117 27.938 183.313 28.33C183.509 28.7127 183.78 29.0113 184.125 29.226C184.48 29.4407 184.895 29.548 185.371 29.548C185.698 29.548 185.997 29.4873 186.267 29.366C186.538 29.2447 186.771 29.0673 186.967 28.834C187.173 28.6007 187.331 28.3253 187.443 28.008H187.597L188.647 28.302C188.479 28.806 188.237 29.24 187.919 29.604C187.602 29.9587 187.229 30.2293 186.799 30.416C186.379 30.5933 185.903 30.682 185.371 30.682ZM201.6 30.5L198.506 20.7H199.724L202.622 30.206L202.748 30.5H201.6ZM201.6 30.5L201.67 30.206L204.344 20.7H205.59V20.812L202.748 30.5H201.6ZM195.468 30.5L192.64 20.812V20.7H193.872L196.56 30.206L196.616 30.5H195.468ZM195.468 30.5L195.594 30.206L198.506 20.7H199.724L196.616 30.5H195.468ZM209.706 30.682C209.024 30.682 208.422 30.528 207.9 30.22C207.377 29.9027 206.966 29.4687 206.668 28.918C206.378 28.3673 206.234 27.7233 206.234 26.986C206.234 26.258 206.378 25.6187 206.668 25.068C206.957 24.508 207.358 24.074 207.872 23.766C208.394 23.458 208.992 23.304 209.664 23.304C210.326 23.304 210.905 23.4627 211.4 23.78C211.904 24.088 212.296 24.5267 212.576 25.096C212.856 25.6653 212.996 26.328 212.996 27.084V27.252L212.786 27.448H206.892V26.342H212.352L211.792 26.566C211.764 26.118 211.652 25.7353 211.456 25.418C211.26 25.1007 211.008 24.858 210.7 24.69C210.392 24.5127 210.046 24.424 209.664 24.424C209.253 24.424 208.875 24.5267 208.53 24.732C208.184 24.928 207.914 25.208 207.718 25.572C207.522 25.936 207.424 26.356 207.424 26.832V27.112C207.424 27.5787 207.522 27.9987 207.718 28.372C207.914 28.736 208.184 29.0253 208.53 29.24C208.875 29.4547 209.267 29.562 209.706 29.562C210.135 29.562 210.508 29.4593 210.826 29.254C211.143 29.0393 211.39 28.75 211.568 28.386H211.736L212.716 28.82C212.454 29.3987 212.058 29.856 211.526 30.192C211.003 30.5187 210.396 30.682 209.706 30.682ZM218.155 30.682C217.67 30.682 217.222 30.584 216.811 30.388C216.41 30.192 216.064 29.9213 215.775 29.576C215.495 29.2307 215.29 28.8387 215.159 28.4V25.586C215.29 25.138 215.495 24.746 215.775 24.41C216.064 24.0647 216.41 23.794 216.811 23.598C217.222 23.402 217.67 23.304 218.155 23.304C218.79 23.304 219.354 23.4627 219.849 23.78C220.344 24.0973 220.74 24.536 221.039 25.096C221.338 25.6467 221.487 26.2767 221.487 26.986C221.487 27.7047 221.338 28.344 221.039 28.904C220.74 29.4547 220.344 29.8887 219.849 30.206C219.354 30.5233 218.79 30.682 218.155 30.682ZM214.557 30.5V20.42L215.705 20.28L215.747 20.392V25.992L215.495 26.986L215.705 27.994V30.5H214.557ZM218.071 29.548C218.5 29.548 218.883 29.4407 219.219 29.226C219.555 29.002 219.816 28.6987 220.003 28.316C220.199 27.9333 220.297 27.49 220.297 26.986C220.297 26.482 220.199 26.0387 220.003 25.656C219.816 25.2733 219.555 24.9747 219.219 24.76C218.883 24.5453 218.5 24.438 218.071 24.438C217.623 24.438 217.222 24.5453 216.867 24.76C216.522 24.9747 216.246 25.2733 216.041 25.656C215.845 26.0387 215.747 26.482 215.747 26.986C215.747 27.49 215.845 27.9333 216.041 28.316C216.246 28.6987 216.522 29.002 216.867 29.226C217.222 29.4407 217.623 29.548 218.071 29.548ZM225.315 30.682C224.578 30.682 223.957 30.5047 223.453 30.15C222.949 29.7953 222.613 29.3007 222.445 28.666L223.537 28.4L223.691 28.428C223.794 28.7827 223.999 29.0627 224.307 29.268C224.624 29.464 224.993 29.562 225.413 29.562C225.833 29.562 226.188 29.4687 226.477 29.282C226.776 29.086 226.925 28.834 226.925 28.526C226.925 28.274 226.836 28.0733 226.659 27.924C226.491 27.7653 226.234 27.6487 225.889 27.574L224.587 27.28C223.934 27.1307 223.448 26.888 223.131 26.552C222.823 26.216 222.669 25.8147 222.669 25.348C222.669 24.9467 222.776 24.592 222.991 24.284C223.215 23.976 223.523 23.738 223.915 23.57C224.307 23.3927 224.75 23.304 225.245 23.304C225.964 23.304 226.57 23.4813 227.065 23.836C227.56 24.1907 227.886 24.6947 228.045 25.348L226.953 25.572L226.799 25.544C226.715 25.1893 226.519 24.914 226.211 24.718C225.912 24.522 225.581 24.424 225.217 24.424C224.834 24.424 224.512 24.508 224.251 24.676C223.999 24.8347 223.873 25.0447 223.873 25.306C223.873 25.5207 223.952 25.7027 224.111 25.852C224.279 25.992 224.54 26.0993 224.895 26.174L226.211 26.482C226.864 26.6313 227.35 26.8693 227.667 27.196C227.984 27.5227 228.143 27.9427 228.143 28.456C228.143 28.9133 228.017 29.31 227.765 29.646C227.522 29.9727 227.186 30.2293 226.757 30.416C226.337 30.5933 225.856 30.682 225.315 30.682ZM229.554 30.5V23.486H230.744V30.5H229.554ZM230.156 22.184C229.922 22.184 229.726 22.1047 229.568 21.946C229.409 21.7873 229.33 21.5913 229.33 21.358C229.33 21.1247 229.409 20.9287 229.568 20.77C229.726 20.602 229.922 20.518 230.156 20.518C230.389 20.518 230.585 20.602 230.744 20.77C230.912 20.9287 230.996 21.1247 230.996 21.358C230.996 21.5913 230.912 21.7873 230.744 21.946C230.585 22.1047 230.389 22.184 230.156 22.184ZM234.811 30.5C234.204 30.5 233.71 30.3087 233.327 29.926C232.944 29.534 232.753 29.0067 232.753 28.344V21.596H233.943V28.246C233.943 28.6473 234.032 28.9367 234.209 29.114C234.386 29.282 234.671 29.366 235.063 29.366H235.903L235.973 29.52V30.5H234.811ZM231.549 24.606V23.486H235.973V24.606H231.549ZM240.331 30.682C239.649 30.682 239.047 30.528 238.525 30.22C238.002 29.9027 237.591 29.4687 237.293 28.918C237.003 28.3673 236.859 27.7233 236.859 26.986C236.859 26.258 237.003 25.6187 237.293 25.068C237.582 24.508 237.983 24.074 238.497 23.766C239.019 23.458 239.617 23.304 240.289 23.304C240.951 23.304 241.53 23.4627 242.025 23.78C242.529 24.088 242.921 24.5267 243.201 25.096C243.481 25.6653 243.621 26.328 243.621 27.084V27.252L243.411 27.448H237.517V26.342H242.977L242.417 26.566C242.389 26.118 242.277 25.7353 242.081 25.418C241.885 25.1007 241.633 24.858 241.325 24.69C241.017 24.5127 240.671 24.424 240.289 24.424C239.878 24.424 239.5 24.5267 239.155 24.732C238.809 24.928 238.539 25.208 238.343 25.572C238.147 25.936 238.049 26.356 238.049 26.832V27.112C238.049 27.5787 238.147 27.9987 238.343 28.372C238.539 28.736 238.809 29.0253 239.155 29.24C239.5 29.4547 239.892 29.562 240.331 29.562C240.76 29.562 241.133 29.4593 241.451 29.254C241.768 29.0393 242.015 28.75 242.193 28.386H242.361L243.341 28.82C243.079 29.3987 242.683 29.856 242.151 30.192C241.628 30.5187 241.021 30.682 240.331 30.682Z" fill="#2F2F2F"/>
<path d="M123.816 47.5V41.488H124.8V43.18L124.512 43C124.624 42.656 124.8 42.36 125.04 42.112C125.28 41.864 125.56 41.672 125.88 41.536C126.208 41.4 126.556 41.332 126.924 41.332C127.356 41.332 127.74 41.424 128.076 41.608C128.42 41.792 128.688 42.064 128.88 42.424C129.072 42.784 129.168 43.236 129.168 43.78V47.5H128.148V44.032C128.148 43.6 128.084 43.26 127.956 43.012C127.828 42.756 127.652 42.576 127.428 42.472C127.212 42.368 126.964 42.316 126.684 42.316C126.38 42.316 126.084 42.392 125.796 42.544C125.516 42.688 125.284 42.908 125.1 43.204C124.924 43.5 124.836 43.868 124.836 44.308V47.5H123.816ZM133.37 47.656C132.786 47.656 132.27 47.524 131.822 47.26C131.374 46.988 131.022 46.616 130.766 46.144C130.518 45.672 130.394 45.12 130.394 44.488C130.394 43.864 130.518 43.316 130.766 42.844C131.014 42.364 131.358 41.992 131.798 41.728C132.246 41.464 132.758 41.332 133.334 41.332C133.902 41.332 134.398 41.468 134.822 41.74C135.254 42.004 135.59 42.38 135.83 42.868C136.07 43.356 136.19 43.924 136.19 44.572V44.716L136.01 44.884H130.958V43.936H135.638L135.158 44.128C135.134 43.744 135.038 43.416 134.87 43.144C134.702 42.872 134.486 42.664 134.222 42.52C133.958 42.368 133.662 42.292 133.334 42.292C132.982 42.292 132.658 42.38 132.362 42.556C132.066 42.724 131.834 42.964 131.666 43.276C131.498 43.588 131.414 43.948 131.414 44.356V44.596C131.414 44.996 131.498 45.356 131.666 45.676C131.834 45.988 132.066 46.236 132.362 46.42C132.658 46.604 132.994 46.696 133.37 46.696C133.738 46.696 134.058 46.608 134.33 46.432C134.602 46.248 134.814 46 134.966 45.688H135.11L135.95 46.06C135.726 46.556 135.386 46.948 134.93 47.236C134.482 47.516 133.962 47.656 133.37 47.656ZM142.76 41.488V47.5H141.776V45.808L142.064 45.988C141.952 46.324 141.776 46.62 141.536 46.876C141.304 47.124 141.024 47.316 140.696 47.452C140.376 47.588 140.028 47.656 139.652 47.656C139.22 47.656 138.836 47.564 138.5 47.38C138.164 47.196 137.896 46.924 137.696 46.564C137.504 46.196 137.408 45.744 137.408 45.208V41.488H138.428V44.944C138.428 45.376 138.492 45.72 138.62 45.976C138.756 46.224 138.932 46.404 139.148 46.516C139.372 46.62 139.624 46.672 139.904 46.672C140.216 46.672 140.508 46.596 140.78 46.444C141.06 46.292 141.288 46.068 141.464 45.772C141.648 45.476 141.74 45.112 141.74 44.68V41.488H142.76ZM144.394 47.5V41.488H145.378V43.18L145.09 43C145.234 42.536 145.502 42.168 145.894 41.896C146.286 41.624 146.726 41.488 147.214 41.488H147.826V42.448H147.058C146.73 42.448 146.442 42.528 146.194 42.688C145.954 42.84 145.762 43.056 145.618 43.336C145.482 43.608 145.414 43.928 145.414 44.296V47.5H144.394ZM150.415 47.656C149.999 47.656 149.627 47.576 149.299 47.416C148.979 47.256 148.727 47.036 148.543 46.756C148.359 46.468 148.267 46.14 148.267 45.772C148.267 45.244 148.455 44.816 148.831 44.488C149.215 44.16 149.743 43.968 150.415 43.912L152.731 43.744V44.656L150.619 44.824C150.179 44.856 149.851 44.952 149.635 45.112C149.427 45.264 149.323 45.48 149.323 45.76C149.323 46.024 149.435 46.244 149.659 46.42C149.883 46.596 150.171 46.684 150.523 46.684C150.883 46.684 151.211 46.6 151.507 46.432C151.803 46.264 152.035 46.04 152.203 45.76C152.379 45.48 152.467 45.168 152.467 44.824V43.852C152.467 43.396 152.323 43.02 152.035 42.724C151.755 42.428 151.379 42.28 150.907 42.28C150.539 42.28 150.223 42.372 149.959 42.556C149.695 42.732 149.515 42.98 149.419 43.3H149.287L148.399 43.012C148.575 42.476 148.883 42.06 149.323 41.764C149.763 41.468 150.295 41.32 150.919 41.32C151.735 41.32 152.363 41.564 152.803 42.052C153.251 42.54 153.475 43.228 153.475 44.116V47.5H152.515V45.748L152.875 45.94C152.779 46.268 152.607 46.564 152.359 46.828C152.119 47.084 151.831 47.288 151.495 47.44C151.167 47.584 150.807 47.656 150.415 47.656ZM155.235 47.5V38.86L156.219 38.74L156.255 38.836V47.5H155.235ZM159.86 47.656C159.444 47.656 159.072 47.576 158.744 47.416C158.424 47.256 158.172 47.036 157.988 46.756C157.804 46.468 157.712 46.14 157.712 45.772C157.712 45.244 157.9 44.816 158.276 44.488C158.66 44.16 159.188 43.968 159.86 43.912L162.176 43.744V44.656L160.064 44.824C159.624 44.856 159.296 44.952 159.08 45.112C158.872 45.264 158.768 45.48 158.768 45.76C158.768 46.024 158.88 46.244 159.104 46.42C159.328 46.596 159.616 46.684 159.968 46.684C160.328 46.684 160.656 46.6 160.952 46.432C161.248 46.264 161.48 46.04 161.648 45.76C161.824 45.48 161.912 45.168 161.912 44.824V43.852C161.912 43.396 161.768 43.02 161.48 42.724C161.2 42.428 160.824 42.28 160.352 42.28C159.984 42.28 159.668 42.372 159.404 42.556C159.14 42.732 158.96 42.98 158.864 43.3H158.732L157.844 43.012C158.02 42.476 158.328 42.06 158.768 41.764C159.208 41.468 159.74 41.32 160.364 41.32C161.18 41.32 161.808 41.564 162.248 42.052C162.696 42.54 162.92 43.228 162.92 44.116V47.5H161.96V45.748L162.32 45.94C162.224 46.268 162.052 46.564 161.804 46.828C161.564 47.084 161.276 47.288 160.94 47.44C160.612 47.584 160.252 47.656 159.86 47.656ZM164.504 47.5V41.488H165.488V43.18L165.2 43C165.344 42.536 165.612 42.168 166.004 41.896C166.396 41.624 166.836 41.488 167.324 41.488H167.936V42.448H167.168C166.84 42.448 166.552 42.528 166.304 42.688C166.064 42.84 165.872 43.056 165.728 43.336C165.592 43.608 165.524 43.928 165.524 44.296V47.5H164.504ZM171.317 47.656C170.717 47.656 170.189 47.524 169.733 47.26C169.277 46.988 168.921 46.616 168.665 46.144C168.409 45.672 168.281 45.12 168.281 44.488C168.281 43.864 168.409 43.316 168.665 42.844C168.921 42.364 169.277 41.992 169.733 41.728C170.189 41.464 170.717 41.332 171.317 41.332C171.773 41.332 172.181 41.416 172.541 41.584C172.909 41.744 173.221 41.976 173.477 42.28C173.741 42.576 173.937 42.94 174.065 43.372L173.177 43.624H173.045C172.909 43.216 172.685 42.896 172.373 42.664C172.069 42.424 171.717 42.304 171.317 42.304C170.909 42.304 170.553 42.396 170.249 42.58C169.953 42.764 169.721 43.02 169.553 43.348C169.385 43.676 169.301 44.056 169.301 44.488C169.301 44.92 169.385 45.304 169.553 45.64C169.721 45.968 169.953 46.224 170.249 46.408C170.553 46.592 170.909 46.684 171.317 46.684C171.597 46.684 171.853 46.632 172.085 46.528C172.317 46.424 172.517 46.272 172.685 46.072C172.861 45.872 172.997 45.636 173.093 45.364H173.225L174.125 45.616C173.981 46.048 173.773 46.42 173.501 46.732C173.229 47.036 172.909 47.268 172.541 47.428C172.181 47.58 171.773 47.656 171.317 47.656ZM175.862 47.596C175.646 47.596 175.466 47.524 175.322 47.38C175.178 47.236 175.106 47.06 175.106 46.852C175.106 46.636 175.178 46.456 175.322 46.312C175.466 46.168 175.646 46.096 175.862 46.096C176.078 46.096 176.254 46.168 176.39 46.312C176.534 46.456 176.606 46.636 176.606 46.852C176.606 47.06 176.534 47.236 176.39 47.38C176.254 47.524 176.078 47.596 175.862 47.596ZM180.028 47.656C179.612 47.656 179.24 47.576 178.912 47.416C178.592 47.256 178.34 47.036 178.156 46.756C177.972 46.468 177.88 46.14 177.88 45.772C177.88 45.244 178.068 44.816 178.444 44.488C178.828 44.16 179.356 43.968 180.028 43.912L182.344 43.744V44.656L180.232 44.824C179.792 44.856 179.464 44.952 179.248 45.112C179.04 45.264 178.936 45.48 178.936 45.76C178.936 46.024 179.048 46.244 179.272 46.42C179.496 46.596 179.784 46.684 180.136 46.684C180.496 46.684 180.824 46.6 181.12 46.432C181.416 46.264 181.648 46.04 181.816 45.76C181.992 45.48 182.08 45.168 182.08 44.824V43.852C182.08 43.396 181.936 43.02 181.648 42.724C181.368 42.428 180.992 42.28 180.52 42.28C180.152 42.28 179.836 42.372 179.572 42.556C179.308 42.732 179.128 42.98 179.032 43.3H178.9L178.012 43.012C178.188 42.476 178.496 42.06 178.936 41.764C179.376 41.468 179.908 41.32 180.532 41.32C181.348 41.32 181.976 41.564 182.416 42.052C182.864 42.54 183.088 43.228 183.088 44.116V47.5H182.128V45.748L182.488 45.94C182.392 46.268 182.22 46.564 181.972 46.828C181.732 47.084 181.444 47.288 181.108 47.44C180.78 47.584 180.42 47.656 180.028 47.656ZM184.671 47.5V41.488H185.691V47.5H184.671ZM185.187 40.372C184.987 40.372 184.819 40.304 184.683 40.168C184.547 40.032 184.479 39.864 184.479 39.664C184.479 39.464 184.547 39.296 184.683 39.16C184.819 39.016 184.987 38.944 185.187 38.944C185.387 38.944 185.555 39.016 185.691 39.16C185.835 39.296 185.907 39.464 185.907 39.664C185.907 39.864 185.835 40.032 185.691 40.168C185.555 40.304 185.387 40.372 185.187 40.372Z" fill="black" fill-opacity="0.5"/>
<path d="M123 49H186.519V49.6H123V49Z" fill="black" fill-opacity="0.5"/>
</g>
<defs>
<filter id="filter0_fn_44_157" x="-60" y="-20" width="664" height="370" filterUnits="userSpaceOnUse" color-interpolation-filters="sRGB">
<feFlood flood-opacity="0" result="BackgroundImageFix"/>
<feBlend mode="normal" in="SourceGraphic" in2="BackgroundImageFix" result="shape"/>
<feGaussianBlur stdDeviation="30" result="effect1_foregroundBlur_44_157"/>
<feTurbulence type="fractalNoise" baseFrequency="5 5" stitchTiles="stitch" numOctaves="3" result="noise" seed="473" />
<feColorMatrix in="noise" type="luminanceToAlpha" result="alphaNoise" />
<feComponentTransfer in="alphaNoise" result="coloredNoise1">
<feFuncA type="discrete" tableValues="1 1 1 1 1 1 1 1 1 1 1 1 1 1 1 1 1 1 1 1 1 1 1 1 1 1 1 1 1 1 1 1 1 1 1 1 1 1 1 1 1 1 1 1 1 1 1 1 1 1 1 0 0 0 0 0 0 0 0 0 0 0 0 0 0 0 0 0 0 0 0 0 0 0 0 0 0 0 0 0 0 0 0 0 0 0 0 0 0 0 0 0 0 0 0 0 0 0 0 0 "/>
</feComponentTransfer>
<feComposite operator="in" in2="effect1_foregroundBlur_44_157" in="coloredNoise1" result="noise1Clipped" />
<feFlood flood-color="rgba(255, 255, 255, 0.25)" result="color1Flood" />
<feComposite operator="in" in2="noise1Clipped" in="color1Flood" result="color1" />
<feMerge result="effect2_noise_44_157">
<feMergeNode in="effect1_foregroundBlur_44_157" />
<feMergeNode in="color1" />
</feMerge>
</filter>
<filter id="filter1_fn_44_157" x="-60" y="-20" width="664" height="370" filterUnits="userSpaceOnUse" color-interpolation-filters="sRGB">
<feFlood flood-opacity="0" result="BackgroundImageFix"/>
<feBlend mode="normal" in="SourceGraphic" in2="BackgroundImageFix" result="shape"/>
<feGaussianBlur stdDeviation="30" result="effect1_foregroundBlur_44_157"/>
<feTurbulence type="fractalNoise" baseFrequency="5 5" stitchTiles="stitch" numOctaves="3" result="noise" seed="473" />
<feColorMatrix in="noise" type="luminanceToAlpha" result="alphaNoise" />
<feComponentTransfer in="alphaNoise" result="coloredNoise1">
<feFuncA type="discrete" tableValues="1 1 1 1 1 1 1 1 1 1 1 1 1 1 1 1 1 1 1 1 1 1 1 1 1 1 1 1 1 1 1 1 1 1 1 1 1 1 1 1 1 1 1 1 1 1 1 1 1 1 1 0 0 0 0 0 0 0 0 0 0 0 0 0 0 0 0 0 0 0 0 0 0 0 0 0 0 0 0 0 0 0 0 0 0 0 0 0 0 0 0 0 0 0 0 0 0 0 0 0 "/>
</feComponentTransfer>
<feComposite operator="in" in2="effect1_foregroundBlur_44_157" in="coloredNoise1" result="noise1Clipped" />
<feFlood flood-color="rgba(255, 255, 255, 0.25)" result="color1Flood" />
<feComposite operator="in" in2="noise1Clipped" in="color1Flood" result="color1" />
<feMerge result="effect2_noise_44_157">
<feMergeNode in="effect1_foregroundBlur_44_157" />
<feMergeNode in="color1" />
</feMerge>
</filter>
<filter id="filter2_fn_44_157" x="32.9602" y="-26.2" width="478.08" height="266.4" filterUnits="userSpaceOnUse" color-interpolation-filters="sRGB">
<feFlood flood-opacity="0" result="BackgroundImageFix"/>
<feBlend mode="normal" in="SourceGraphic" in2="BackgroundImageFix" result="shape"/>
<feGaussianBlur stdDeviation="21.6" result="effect1_foregroundBlur_44_157"/>
<feTurbulence type="fractalNoise" baseFrequency="5 5" stitchTiles="stitch" numOctaves="3" result="noise" seed="473" />
<feColorMatrix in="noise" type="luminanceToAlpha" result="alphaNoise" />
<feComponentTransfer in="alphaNoise" result="coloredNoise1">
<feFuncA type="discrete" tableValues="1 1 1 1 1 1 1 1 1 1 1 1 1 1 1 1 1 1 1 1 1 1 1 1 1 1 1 1 1 1 1 1 1 1 1 1 1 1 1 1 1 1 1 1 1 1 1 1 1 1 1 0 0 0 0 0 0 0 0 0 0 0 0 0 0 0 0 0 0 0 0 0 0 0 0 0 0 0 0 0 0 0 0 0 0 0 0 0 0 0 0 0 0 0 0 0 0 0 0 0 "/>
</feComponentTransfer>
<feComposite operator="in" in2="effect1_foregroundBlur_44_157" in="coloredNoise1" result="noise1Clipped" />
<feFlood flood-color="rgba(255, 255, 255, 0.25)" result="color1Flood" />
<feComposite operator="in" in2="noise1Clipped" in="color1Flood" result="color1" />
<feMerge result="effect2_noise_44_157">
<feMergeNode in="effect1_foregroundBlur_44_157" />
<feMergeNode in="color1" />
</feMerge>
</filter>
<linearGradient id="paint0_linear_44_157" x1="272" y1="40" x2="272" y2="290" gradientUnits="userSpaceOnUse">
<stop offset="0.0576923" stop-color="#87CEEB"/>
<stop offset="0.163462" stop-color="#FFADDF"/>
<stop offset="0.3125" stop-color="#FCEC3B"/>
<stop offset="1"/>
</linearGradient>
<linearGradient id="paint1_linear_44_157" x1="272" y1="40" x2="272" y2="290" gradientUnits="userSpaceOnUse">
<stop offset="0.0576923" stop-color="#87CEEB"/>
<stop offset="0.163462" stop-color="#FFADDF"/>
<stop offset="0.3125" stop-color="#FCEC3B"/>
<stop offset="1"/>
</linearGradient>
<linearGradient id="paint2_linear_44_157" x1="272" y1="17" x2="272" y2="197" gradientUnits="userSpaceOnUse">
<stop offset="0.0576923" stop-color="#87CEEB"/>
<stop offset="0.163462" stop-color="#FFADDF"/>
<stop offset="0.3125" stop-color="#FCEC3B"/>
<stop offset="1"/>
</linearGradient>
<clipPath id="clip0_44_157">
<rect width="544" height="70" fill="white"/>
</clipPath>
<clipPath id="clip1_44_157">
<rect width="68" height="48" fill="white" transform="translate(43 11)"/>
</clipPath>
</defs>
</svg>
