<svg width="39" height="40" viewBox="0 0 39 40" fill="none" xmlns="http://www.w3.org/2000/svg">
<path d="M36.1733 26.1866H28.109C28.109 26.1866 28.1053 26.1866 28.1041 26.1866C27.495 26.1535 27.1728 25.9893 26.9127 25.7025C26.7741 25.5517 26.6683 25.3728 26.588 25.184C26.3339 24.5896 26.1929 23.9019 26.1868 23.3357V15.2229C26.1868 13.6491 24.9212 12.3732 23.3601 12.3732H16.4326C16.1128 12.3855 15.8356 12.4161 15.1329 12.3793C14.6405 12.3536 14.108 12.1759 13.7068 11.8731C13.3238 11.5839 13.1451 10.9073 13.0357 10.3815C12.9177 9.814 12.8618 9.23426 12.8618 8.65329V2.82274C12.925 1.27593 11.6594 0 10.0983 0H2.79631C1.25226 0 0 1.26245 0 2.81906V10.9625C0 12.5301 1.27171 13.8122 2.8267 13.8122H10.0533C10.0837 13.8122 10.1178 13.8171 10.1482 13.8171C11.1354 13.8379 12.2174 14.2412 12.4618 15.18C12.4898 15.2867 12.4995 15.3982 12.4995 15.5085L12.4861 22.7277C12.4667 23.4252 12.4278 24.0858 12.2114 24.6226C11.8576 25.4488 11.2168 26.2197 10.395 26.6058C10.0193 26.7872 9.60836 26.8816 9.19256 26.8816H3.2425C1.217 26.8816 0 28.1097 0 29.6234V36.8292C0 38.5794 1.40667 39.9975 3.14281 39.9975H11.0004C12.5615 39.9975 13.7007 38.9802 13.7007 37.4065L13.5937 29.7313C13.5937 29.6001 13.5852 29.4359 13.5888 29.2435C13.5925 29.0044 13.5852 28.8034 13.5961 28.5657C13.6192 28.0496 13.646 27.4993 13.9232 26.9735C14.2867 26.2847 15.2812 26.2246 15.821 26.1878H22.7474C23.6057 26.1878 24.4118 26.6328 24.8495 27.378C25.1169 27.9148 25.2677 28.4529 25.2981 29.0375V37.1503C25.2981 38.7241 26.5637 40 28.1248 40H36.1721C37.7344 40 39 38.7241 39 37.1491V29.0375C39 27.4638 37.7344 26.1878 36.1733 26.1878V26.1866ZM12.767 17.0578C12.7633 17.07 12.7609 17.0749 12.7585 17.0725C12.7609 17.0676 12.7645 17.0627 12.767 17.0578ZM8.98831 26.9759C8.98831 26.9759 8.99439 26.9784 8.99804 26.9796C8.98953 26.9796 8.98588 26.9784 8.98831 26.9759ZM25.3455 30.2546C25.3455 30.2546 25.3504 30.2485 25.3528 30.2461C25.3491 30.2546 25.3467 30.2571 25.3455 30.2546Z" fill="#F5F3EF"/>
</svg>
