<svg width="48" height="48" viewBox="0 0 48 48" fill="none" xmlns="http://www.w3.org/2000/svg">
<path opacity="0.8" d="M44.521 31.4239H34.5957H34.5897C33.84 31.3842 33.4434 31.1872 33.1233 30.843C32.9527 30.662 32.8225 30.4474 32.7237 30.2208C32.4109 29.5075 32.2374 28.6823 32.2299 28.0028V18.2675C32.2299 16.3789 30.6722 14.8478 28.7509 14.8478H20.2247C19.8311 14.8626 19.49 14.8993 18.6251 14.8552C18.0191 14.8243 17.3637 14.6111 16.8699 14.2477C16.3985 13.9007 16.1786 13.0888 16.0439 12.4578C15.8987 11.7768 15.8299 11.0811 15.8299 10.3839V3.38729C15.9077 1.53112 14.35 0 12.4287 0H3.44161C1.54124 0 0 1.51494 0 3.38287V13.155C0 15.0361 1.56518 16.5746 3.47902 16.5746H12.3733C12.4107 16.5746 12.4527 16.5805 12.4901 16.5805C13.7051 16.6055 15.0368 17.0894 15.3376 18.216C15.3721 18.344 15.384 18.4778 15.384 18.6102L15.3675 27.2732C15.3436 28.1102 15.2958 28.903 15.0294 29.5471C14.594 30.5386 13.8053 31.4636 12.7938 31.927C12.3314 32.1446 11.8257 32.2579 11.3139 32.2579H3.99077C1.49785 32.2579 0 33.7316 0 35.5481V44.195C0 46.2953 1.73129 47.997 3.86807 47.997H13.539C15.4603 47.997 16.8624 46.7762 16.8624 44.8878L16.7307 35.6776C16.7307 35.5201 16.7202 35.3231 16.7247 35.0922C16.7292 34.8053 16.7202 34.5641 16.7337 34.2788C16.7621 33.6595 16.7951 32.9992 17.1362 32.3682C17.5836 31.5416 18.8076 31.4695 19.472 31.4254H27.9968C29.0532 31.4254 30.0453 31.9594 30.584 32.8536C30.9131 33.4978 31.0987 34.1435 31.1361 34.845V44.5804C31.1361 46.4689 32.6938 48 34.6151 48H44.5195C46.4423 48 48 46.4689 48 44.5789V34.845C48 32.9566 46.4423 31.4254 44.521 31.4254V31.4239ZM31.1945 36.3055C31.1945 36.3055 31.2005 36.2982 31.2034 36.2953C31.1989 36.3055 31.1959 36.3085 31.1945 36.3055Z" fill="black"/>
</svg>
