<svg width="193" height="135" viewBox="0 0 193 135" fill="none" xmlns="http://www.w3.org/2000/svg">
<path d="M0.0156459 84.6837C-0.127223 83.4904 0.724296 82.4073 1.91759 82.2644L78.5765 73.187L97.7094 70.8956L160.081 63.5408C161.274 63.3978 162.357 64.2494 162.5 65.4428L163.794 76.2463C163.937 77.4396 163.085 78.5228 161.892 78.6657L97.5197 86.2602L67.6081 89.8423L3.72859 97.3893C2.53524 97.5322 1.45199 96.6806 1.30911 95.4873L0.0156459 84.6837Z" fill="white"/>
<path d="M37.6073 17.7627C37.0277 16.7098 37.4115 15.3864 38.4644 14.8069L47.9971 9.56004C49.05 8.98053 50.3733 9.36426 50.9528 10.4171L74.8446 52.5198C75.4241 53.5727 75.0404 54.8961 73.9875 55.4756L64.4547 60.7224C63.4019 61.3019 62.0785 60.9182 61.499 59.8653L37.6073 17.7627ZM81.2674 88.3248C80.6878 87.2719 81.0716 85.9486 82.1245 85.369L91.6572 80.1222C92.7101 79.5427 94.0334 79.9264 94.6129 80.9793L97.5197 86.2602L119.193 125.635C119.772 126.687 119.389 128.011 118.336 128.59L108.803 133.837C107.75 134.417 106.427 134.033 105.847 132.98L83.8711 93.0551L81.2674 88.3248Z" fill="white"/>
<path d="M126.117 3.91794C127.244 4.33567 127.819 5.58785 127.401 6.71476L125.51 11.8157L124.753 13.8425C117.269 33.6888 108.203 52.7577 97.7094 70.8956C93.3404 78.4472 88.7239 85.8374 83.8711 93.0551C77.6932 102.243 71.1324 111.152 64.2114 119.759C63.5277 120.609 62.2705 120.707 61.4593 119.977L52.9562 112.328C52.2017 111.649 52.1111 110.499 52.7457 109.707C57.9137 103.258 62.8713 96.6325 67.6081 89.8423C71.4081 84.395 75.066 78.8415 78.5765 73.187C91.5704 52.257 102.544 29.9442 111.227 6.52135L113.118 1.42013C113.536 0.293356 114.788 -0.281427 115.915 0.136263L126.117 3.91794Z" fill="white"/>
<path d="M171.582 18V5.49398H172.922V18H171.582ZM167.651 6.79818V5.49398H176.834V6.79818H167.651ZM184.007 18L184.025 17.6248L189.206 5.49398H190.474V5.86916L185.293 18H184.007ZM178.361 18V5.49398H179.701V18H178.361ZM184.025 18L178.826 5.86916V5.49398H180.112L185.293 17.6248V18H184.025ZM189.599 18V5.49398H190.939V18H189.599Z" fill="white"/>
</svg>
