<svg width="303" height="211" viewBox="0 0 303 211" fill="none" xmlns="http://www.w3.org/2000/svg">
<path d="M0.0246098 133.201C-0.200111 131.324 1.13926 129.62 3.01621 129.395L123.594 115.117L153.689 111.513L251.794 99.9445C253.671 99.7197 255.375 101.059 255.6 102.936L257.634 119.929C257.859 121.806 256.52 123.51 254.643 123.735L153.391 135.68L106.342 141.315L5.86477 153.185C3.98773 153.41 2.28386 152.071 2.05913 150.194L0.0246098 133.201Z" fill="#1F1F1F"/>
<path d="M59.1532 27.9392C58.2416 26.2831 58.8452 24.2016 60.5013 23.29L75.4955 15.0372C77.1516 14.1256 79.2331 14.7292 80.1447 16.3853L117.724 82.6094C118.636 84.2655 118.032 86.3471 116.376 87.2586L101.382 95.5115C99.726 96.423 97.6445 95.8194 96.733 94.1633L59.1532 27.9392ZM127.827 138.928C126.915 137.272 127.519 135.19 129.175 134.279L144.169 126.026C145.825 125.114 147.907 125.718 148.818 127.374L153.391 135.68L187.481 197.613C188.392 199.269 187.789 201.351 186.132 202.262L171.138 210.515C169.482 211.427 167.401 210.823 166.489 209.167L131.922 146.368L127.827 138.928Z" fill="#1F1F1F"/>
<path d="M198.372 6.1626C200.144 6.81965 201.048 8.78923 200.391 10.5618L197.417 18.5851L196.226 21.7731C184.455 52.9898 170.195 82.9836 153.689 111.513C146.817 123.391 139.556 135.015 131.922 146.368C122.205 160.821 111.885 174.833 100.999 188.371C99.9239 189.708 97.9464 189.862 96.6705 188.714L83.2958 176.683C82.1091 175.615 81.9666 173.806 82.9648 172.56C91.0936 162.416 98.8915 151.995 106.342 141.315C112.319 132.747 118.073 124.011 123.594 115.117C144.033 82.196 161.294 47.0998 174.95 10.2575L177.926 2.23375C178.583 0.461425 180.552 -0.442662 182.325 0.214331L198.372 6.1626Z" fill="#1F1F1F"/>
<path d="M269.885 28V8.32904H271.992V28H269.885ZM263.703 10.3804V8.32904H278.147V10.3804H263.703ZM289.428 28L289.456 27.4099L297.606 8.32904H299.601V8.91917L291.451 28H289.428ZM280.548 28V8.32904H282.656V28H280.548ZM289.456 28L281.279 8.91917V8.32904H283.302L291.451 27.4099V28H289.456ZM298.224 28V8.32904H300.331V28H298.224Z" fill="#1F1F1F"/>
</svg>
